<svg xmlns="http://www.w3.org/2000/svg" xmlns:xlink="http://www.w3.org/1999/xlink" width="2000" zoomAndPan="magnify" viewBox="0 0 1500 1499.999933" height="2000" preserveAspectRatio="xMidYMid meet" version="1.0"><defs><g/><clipPath id="0c4e4924a3"><path d="M 0 0 L 1500 0 L 1500 1500 L 0 1500 Z M 0 0 " clip-rule="nonzero"/></clipPath><clipPath id="374b3f9262"><rect x="0" width="1500" y="0" height="1500"/></clipPath><clipPath id="bb1c273b81"><rect x="0" width="473" y="0" height="787"/></clipPath><clipPath id="98c581dd15"><rect x="0" width="1500" y="0" height="1500"/></clipPath></defs><g transform="matrix(1, 0, 0, 1, 0, 0.000000000000112861)"><g clip-path="url(#98c581dd15)"><g transform="matrix(1, 0, 0, 1, 0, 0.000000000000112861)"><g clip-path="url(#374b3f9262)"><g clip-path="url(#0c4e4924a3)"><rect x="-546" width="2592" fill="#ffffff" y="-545.999976" height="2591.999885" fill-opacity="1"/></g></g></g><g transform="matrix(1, 0, 0, 1, 520, 352)"><g clip-path="url(#bb1c273b81)"><g fill="#000000" fill-opacity="1"><g transform="translate(6.970095, 606.410038)"><g><path d="M 437.703125 -118.671875 L 437.703125 0 L 20.75 0 L 20.75 -94.03125 L 228.25 -335.25 L 27.234375 -335.25 L 27.234375 -453.90625 L 427.328125 -453.90625 L 427.328125 -359.890625 L 219.828125 -118.671875 Z M 437.703125 -118.671875 "/></g></g></g></g></g></g></g></svg>